<svg width="201" height="64" viewBox="0 0 201 64" fill="none" xmlns="http://www.w3.org/2000/svg">
<g clip-path="url(#clip0_2704_1598)">
<path d="M9.67999 62.5199C9.51999 62.7299 9.33998 62.8899 9.10999 63.0099C8.88999 63.1299 8.65999 63.1699 8.42999 63.1499C7.74999 63.0999 7.11999 62.9099 6.53999 62.5799C5.95999 62.2499 5.44999 61.8199 5.03999 61.2699C4.59999 60.6699 4.26999 59.9999 4.05999 59.2599C3.84999 58.5199 3.67999 57.7799 3.54999 57.0599C3.28999 55.3999 3.08999 53.7099 2.96999 51.9899C2.67999 47.3599 2.54999 42.7399 2.55999 38.1299C2.56999 33.5199 2.55999 28.8899 2.53999 24.2699C2.50999 21.8499 2.46999 19.4599 2.39999 17.0899C2.32999 14.7199 2.19999 12.3299 1.98999 9.90988C1.90999 9.02988 1.81999 8.13988 1.71999 7.25988C1.61999 6.37988 1.38999 5.51988 1.05999 4.68988C0.799986 4.47988 0.549986 4.24988 0.319986 3.98988C0.0799861 3.71988 -0.0200139 3.41988 -1.38967e-05 3.07988C-1.38967e-05 2.94988 0.0699861 2.82988 0.209986 2.72988C0.349986 2.62988 0.489986 2.55988 0.619986 2.53988C0.829986 2.48988 1.03999 2.47988 1.23999 2.51988C1.43999 2.55988 1.65999 2.59988 1.85999 2.65988C2.81999 2.96988 3.62999 3.53988 4.29999 4.37988C4.60999 4.79988 4.84999 5.24988 5.00999 5.73988C5.17999 6.22988 5.32999 6.73988 5.44999 7.25988C5.65999 8.13988 5.80999 9.02988 5.90999 9.90988C6.00999 10.7899 6.08999 11.6899 6.13999 12.5999C6.23999 13.7199 6.30999 14.8299 6.34999 15.9299C6.38999 17.0399 6.42999 18.1499 6.47999 19.2599C6.57999 23.2599 6.62999 27.2399 6.61999 31.1899C6.60999 35.1399 6.63999 39.1199 6.71999 43.1199C6.74999 45.1699 6.78999 47.2199 6.85999 49.2599C6.91999 51.2999 7.05999 53.3499 7.26999 55.3999C7.47999 54.6499 7.65999 53.8899 7.81999 53.1399C7.97999 52.3899 8.12999 51.6299 8.28999 50.8799C8.96999 47.5499 9.58999 44.2499 10.16 40.9699C10.73 37.6899 11.36 34.4099 12.03 31.0999C12.08 30.8699 12.18 30.4199 12.32 29.7699C12.46 29.1199 12.61 28.4399 12.77 27.7199C12.93 27.0099 13.08 26.3299 13.24 25.6899C13.4 25.0499 13.51 24.6199 13.59 24.3799C13.64 24.2799 13.72 24.1899 13.82 24.1299C13.92 24.0699 14.04 24.0199 14.17 23.9899C14.46 23.9399 14.76 23.9499 15.09 24.0299C15.42 24.1099 15.73 24.2299 16.05 24.3999C16.36 24.5699 16.65 24.7699 16.91 24.9999C17.17 25.2299 17.37 25.4799 17.49 25.7399C17.62 25.9499 17.7 26.1599 17.72 26.3799C17.75 26.5999 17.78 26.8199 17.84 27.0199C18.26 29.1499 18.62 31.2799 18.93 33.4199C19.24 35.5499 19.58 37.6999 19.94 39.8599C20.28 41.7299 20.65 43.5999 21.07 45.4799C21.49 47.3499 22.06 49.1799 22.79 50.9799C24.19 46.0399 25.62 41.0899 27.06 36.1199C28.5 31.1499 29.72 26.1499 30.71 21.1099C31 19.6799 31.25 18.2599 31.47 16.8599C31.69 15.4599 31.87 14.0299 32 12.5699C32.1 11.4799 32.16 10.3899 32.16 9.28988C32.16 8.18988 32.06 7.10988 31.85 6.00988C31.75 5.56988 31.63 5.12988 31.5 4.69988C31.37 4.26988 31.16 3.87988 30.88 3.50988C30.8 3.40988 30.6 3.36988 30.28 3.40988C29.96 3.44988 29.73 3.45988 29.6 3.42988C29.08 3.32988 28.57 3.12988 28.06 2.83988C27.55 2.54988 27.17 2.15988 26.91 1.66988C26.78 1.45988 26.72 1.22988 26.73 0.989883C26.74 0.749883 26.88 0.579883 27.14 0.499883C27.4 0.419883 27.7 0.379883 28.04 0.379883C29.29 0.409883 30.46 0.689883 31.55 1.21988C32.64 1.74988 33.59 2.50988 34.4 3.49988C35.15 4.40988 35.66 5.47988 35.92 6.69988C36.18 7.91988 36.34 9.11988 36.39 10.2899C36.47 12.6799 36.33 15.0499 35.98 17.4099C35.63 19.7599 35.21 22.1099 34.71 24.4499C34.11 27.2099 33.46 29.9399 32.74 32.6599C32.02 35.3799 31.28 38.0899 30.5 40.7899C29.72 43.4899 28.94 46.1899 28.16 48.8799C27.38 51.5699 26.63 54.2799 25.9 57.0099C25.77 57.4799 25.44 57.6899 24.92 57.6299C24.37 57.5799 23.84 57.4199 23.32 57.1599C22.8 56.8999 22.37 56.5499 22.03 56.1099C21.28 55.1199 20.62 54.0599 20.06 52.9299C19.5 51.7999 19 50.6499 18.56 49.4799C17.78 47.3699 17.17 45.2199 16.73 43.0299C16.29 40.8299 15.88 38.6299 15.52 36.4199C15 39.1199 14.5 41.8199 14.02 44.4899C13.54 47.1699 13.03 49.8599 12.48 52.5599C12.4 53.0299 12.27 53.7399 12.07 54.6899C11.88 55.6399 11.65 56.6299 11.39 57.6699C11.13 58.7099 10.85 59.6799 10.55 60.5799C10.25 61.4799 9.95999 62.1099 9.66999 62.4699L9.67999 62.5199Z" fill="#003049"/>
<path d="M41.5 41.8899C41.11 42.0999 40.67 42.1099 40.17 41.9299C39.7 41.7999 39.24 41.5999 38.79 41.3299C38.34 41.0599 37.99 40.6999 37.76 40.2599C37.63 39.9999 37.56 39.6599 37.56 39.2499C37.59 38.4999 37.61 37.7599 37.64 37.0499C37.67 36.3399 37.71 35.5999 37.76 34.8499C37.79 34.1999 37.83 33.0699 37.9 31.4599C37.96 29.8499 38.04 27.9799 38.11 25.8599C38.19 23.7399 38.27 21.5099 38.36 19.1699C38.45 16.8299 38.54 14.5999 38.61 12.4799C38.69 10.3599 38.76 8.49995 38.82 6.87995C38.88 5.26995 38.93 4.13995 38.96 3.48995C38.99 3.19995 39.14 3.01995 39.41 2.93995C39.68 2.85995 39.95 2.84995 40.21 2.89995C40.47 2.94995 40.76 3.04995 41.09 3.18995C41.42 3.32995 41.72 3.49995 42.01 3.69995C42.3 3.89995 42.54 4.11995 42.73 4.37995C42.92 4.63995 43.05 4.89995 43.1 5.15995C43.15 5.72995 43.22 6.29995 43.3 6.85995C43.38 7.41995 43.46 7.97995 43.53 8.55995C43.58 8.78995 43.52 8.99995 43.34 9.17995C43.21 9.27995 43.07 9.34995 42.91 9.36995C42.78 12.7799 42.66 16.1599 42.56 19.5299C42.46 22.8999 42.34 26.2799 42.21 29.6899C42.81 28.3899 43.41 27.1099 44 25.8499C44.6 24.5899 45.22 23.3199 45.87 22.0499C46.26 21.2999 46.66 20.5399 47.08 19.7699C47.5 18.9999 48 18.3199 48.6 17.7199C48.81 17.5099 49.05 17.3199 49.32 17.1499C49.59 16.9799 49.87 16.8699 50.16 16.8199C50.52 16.7899 50.91 16.8299 51.33 16.9399C51.75 17.0399 52.13 17.2099 52.5 17.4299C52.86 17.6499 53.19 17.9199 53.47 18.2299C53.75 18.5399 53.96 18.8699 54.09 19.2099C54.19 19.4999 54.25 19.7999 54.25 20.1299C54.25 20.4599 54.24 20.7699 54.21 21.0899C54.16 21.6899 54.09 22.2699 54.01 22.8299C53.93 23.3899 53.84 23.9699 53.74 24.5699C53.48 26.0299 53.21 27.4599 52.94 28.8799C52.67 30.2999 52.45 31.7499 52.3 33.2299C52.2 34.0899 52.12 34.9499 52.09 35.8199C52.06 36.6899 52.11 37.5599 52.27 38.4099C52.87 37.8399 53.41 37.2099 53.89 36.5399C54.37 35.8599 54.83 35.1799 55.27 34.4699C55.87 33.5099 56.41 32.6199 56.89 31.7999C57.37 30.9799 57.83 30.0399 58.27 28.9699C58.37 28.7399 58.58 28.6199 58.89 28.6199C59.59 28.5399 60.26 28.7099 60.88 29.1299C61.06 29.2599 61.26 29.3999 61.46 29.5599C61.67 29.7199 61.84 29.8899 61.99 30.0699C62.13 30.2499 62.24 30.4499 62.3 30.6499C62.36 30.8599 62.36 31.0699 62.28 31.2699C61.66 32.8299 60.97 34.2499 60.21 35.5399C59.46 36.8299 58.55 38.1299 57.48 39.4599C57.17 39.8799 56.83 40.2699 56.47 40.6499C56.11 41.0299 55.7 41.3499 55.26 41.6099C55 41.7699 54.73 41.8699 54.44 41.9199C54.15 41.9699 53.87 41.9799 53.58 41.9599C52.62 41.9099 51.68 41.5999 50.77 41.0399C49.86 40.4799 49.17 39.7899 48.7 38.9499C48.39 38.3799 48.18 37.7599 48.08 37.0999C47.98 36.4399 47.91 35.7799 47.88 35.1299C47.85 33.6499 47.95 32.1699 48.17 30.6999C48.39 29.2299 48.64 27.7699 48.93 26.3099C47.73 28.7299 46.58 31.1499 45.48 33.5599C44.37 35.9799 43.28 38.4099 42.19 40.8499C42.09 41.0599 41.99 41.2599 41.92 41.4499C41.85 41.6399 41.7 41.7899 41.49 41.8999L41.5 41.8899Z" fill="#003049"/>
<path d="M64.28 41.3799C63.92 41.5899 63.52 41.7199 63.09 41.7699C62.66 41.8199 62.24 41.7999 61.82 41.6899C61.14 41.4799 60.49 41.1499 59.87 40.6999C59.25 40.2499 58.77 39.6899 58.43 39.0399C58.01 38.2599 57.79 37.4099 57.75 36.4899C57.71 35.5699 57.77 34.6599 57.93 33.7799C58.22 32.1899 58.66 30.6499 59.27 29.1399C59.88 27.6299 60.56 26.1599 61.32 24.7299C61.97 23.5299 62.63 22.3599 63.31 21.2199C63.99 20.0799 64.73 18.9599 65.53 17.8699C66.05 17.1699 66.63 16.5099 67.27 15.8799C67.91 15.2499 68.62 14.7199 69.4 14.2799C70 13.9699 70.65 13.7699 71.35 13.6999C72.05 13.6199 72.73 13.6699 73.38 13.8599C73.43 13.8899 73.48 13.8399 73.54 13.7199C73.59 13.5999 73.64 13.5299 73.7 13.5099C74.14 13.2499 74.56 13.1599 74.95 13.2399C75.52 13.3399 76.07 13.5599 76.59 13.8799C77.11 14.2099 77.51 14.6299 77.8 15.1499C77.93 15.3799 78.03 15.7799 78.11 16.3399C78.19 16.8999 78.24 17.4799 78.27 18.0999C78.3 18.7099 78.3 19.2999 78.29 19.8699C78.28 20.4399 78.27 20.8699 78.27 21.1599C78.19 23.0799 78.05 24.9899 77.84 26.8899C77.63 28.7899 77.48 30.7099 77.37 32.6599C77.32 33.3099 77.29 33.9499 77.29 34.5899C77.29 35.2299 77.32 35.8699 77.37 36.5199C77.97 36.0799 78.54 35.5999 79.09 35.0799C79.64 34.5599 80.17 34.0299 80.69 33.4799C80.77 33.4299 80.89 33.3699 81.06 33.2999C81.23 33.2399 81.35 33.2199 81.43 33.2399C81.9 33.2699 82.36 33.3799 82.81 33.5899C83.26 33.7999 83.66 34.0599 84 34.3699C84.26 34.5999 84.47 34.8799 84.62 35.2099C84.78 35.5399 84.72 35.8299 84.46 36.0899C83.94 36.6899 83.39 37.2599 82.82 37.8099C82.25 38.3599 81.62 38.8499 80.95 39.2899C80.64 39.4999 80.3 39.6899 79.94 39.8699C79.58 40.0499 79.21 40.1699 78.85 40.2199C78.28 40.2999 77.71 40.2599 77.13 40.0999C76.56 39.9399 76.02 39.6999 75.53 39.3799C75.04 39.0599 74.61 38.6499 74.24 38.1699C73.88 37.6899 73.62 37.1799 73.46 36.6299C73.25 35.8499 73.13 35.0499 73.11 34.2299C73.08 33.4099 73.08 32.5899 73.11 31.7499C73.16 30.5799 73.24 29.4199 73.34 28.2799C73.44 27.1399 73.56 25.9799 73.69 24.8099C72.68 27.2499 71.62 29.6699 70.51 32.0599C69.4 34.4499 68.11 36.7499 66.63 38.9599C66.32 39.4299 65.97 39.8799 65.6 40.3099C65.22 40.7399 64.79 41.0999 64.29 41.3799H64.28ZM63.07 31.8599C62.71 32.7699 62.41 33.7099 62.19 34.6899C61.97 35.6699 61.87 36.6499 61.9 37.6299C62.45 36.9799 62.94 36.2699 63.38 35.4799C65.1 32.7199 66.58 29.8599 67.84 26.8799C69.1 23.8999 70.34 20.9199 71.56 17.9299C70.81 18.5299 70.14 19.2199 69.57 19.9999C69 20.7799 68.45 21.5899 67.93 22.4199C66.97 23.9299 66.07 25.4599 65.24 27.0199C64.41 28.5799 63.68 30.1899 63.06 31.8599H63.07Z" fill="#003049"/>
<path d="M92.55 42.74C92.24 42.9 91.9 43.02 91.54 43.11C91.18 43.2 90.81 43.23 90.45 43.21C89.28 43.16 88.16 42.81 87.1 42.16C86.03 41.51 85.14 40.73 84.41 39.82C83.94 39.22 83.56 38.57 83.28 37.87C82.99 37.17 82.77 36.45 82.62 35.72C82.33 34.55 82.18 33.35 82.15 32.13C82.12 30.91 82.16 29.7 82.27 28.5C82.4 27.07 82.56 25.66 82.76 24.27C82.96 22.88 83.2 21.48 83.48 20.08C82.54 20.31 81.61 20.63 80.67 21.02C80.44 21.12 80.18 21.16 79.89 21.12C79.6 21.08 79.31 21 79.01 20.89C78.71 20.77 78.43 20.62 78.15 20.44C77.88 20.26 77.65 20.08 77.47 19.89C77.24 19.63 77.05 19.33 76.92 18.99C76.79 18.65 76.87 18.39 77.15 18.21C77.41 18.05 77.89 17.87 78.57 17.64C79.26 17.42 79.99 17.2 80.77 16.98C81.55 16.76 82.29 16.56 82.99 16.4C83.69 16.23 84.19 16.11 84.47 16.03C84.55 15.74 84.67 15.33 84.84 14.8C85.01 14.27 85.2 13.72 85.42 13.16C85.64 12.6 85.87 12.07 86.12 11.58C86.37 11.09 86.61 10.75 86.84 10.57C86.97 10.44 87.13 10.36 87.33 10.34C87.52 10.31 87.71 10.33 87.9 10.38C88.42 10.48 88.91 10.67 89.38 10.93C89.85 11.19 90.22 11.54 90.51 11.98C90.61 12.11 90.7 12.29 90.76 12.51C90.82 12.73 90.79 12.91 90.66 13.04C90.45 13.33 90.26 13.62 90.09 13.92C89.92 14.22 89.77 14.52 89.64 14.84C89.82 14.79 90.12 14.71 90.54 14.61C90.96 14.51 91.39 14.41 91.85 14.32C92.31 14.23 92.73 14.15 93.14 14.09C93.54 14.03 93.85 14.02 94.06 14.07C94.35 14.15 94.64 14.26 94.96 14.4C95.27 14.54 95.56 14.72 95.84 14.93C96.11 15.14 96.34 15.37 96.52 15.61C96.7 15.86 96.79 16.12 96.79 16.41C96.79 16.54 96.75 16.66 96.67 16.78C96.59 16.9 96.5 16.97 96.4 16.99C96.22 17.04 95.92 17.12 95.5 17.22C95.08 17.32 94.61 17.44 94.08 17.57C93.55 17.7 92.97 17.83 92.36 17.96C91.75 18.09 91.18 18.21 90.64 18.33C90.11 18.45 89.63 18.56 89.2 18.66C88.77 18.76 88.48 18.83 88.32 18.85C88.01 20.02 87.74 21.18 87.5 22.34C87.27 23.5 87.06 24.66 86.88 25.83C86.67 27.16 86.51 28.47 86.39 29.77C86.27 31.07 86.24 32.38 86.29 33.71C86.32 34.46 86.39 35.23 86.5 35.99C86.62 36.76 86.79 37.5 87.03 38.23C87.16 38.57 87.31 38.9 87.48 39.22C87.65 39.55 87.88 39.82 88.16 40.06C88.21 40.11 88.28 40.13 88.37 40.12C88.46 40.11 88.55 40.09 88.62 40.06C88.88 39.98 89.13 39.86 89.36 39.71C90.06 39.19 90.66 38.55 91.15 37.8C91.64 37.05 92.09 36.28 92.48 35.5C92.66 35.11 92.86 34.69 93.08 34.23C93.3 33.78 93.52 33.31 93.74 32.83C93.96 32.35 94.17 31.87 94.36 31.41C94.56 30.94 94.73 30.51 94.89 30.12C94.94 30.02 95.02 29.94 95.12 29.89C95.22 29.84 95.34 29.79 95.47 29.73C95.76 29.68 96.07 29.69 96.41 29.77C96.75 29.85 97.07 29.97 97.38 30.14C97.69 30.31 97.98 30.51 98.24 30.74C98.5 30.97 98.69 31.22 98.82 31.48C98.9 31.61 98.96 31.74 99 31.87C99.04 32 99.03 32.13 98.98 32.26C98.54 33.46 97.99 34.75 97.34 36.14C96.69 37.53 96.03 38.77 95.35 39.86C94.99 40.43 94.57 40.98 94.1 41.5C93.63 42.02 93.1 42.44 92.5 42.75L92.55 42.74Z" fill="#003049"/>
<path d="M116.5 60.88C116.37 61.06 116.16 61.17 115.88 61.21C115.59 61.25 115.35 61.24 115.14 61.19C114.65 61.11 114.18 60.94 113.74 60.66C113.3 60.38 112.92 60.06 112.61 59.67C112.35 59.38 112.14 59.07 111.99 58.71C111.84 58.35 111.72 58 111.64 57.64C110.99 57.93 110.35 58.22 109.73 58.54C109.11 58.86 108.5 59.2 107.9 59.59C107.74 59.69 107.59 59.8 107.43 59.9C107.27 60 107.1 60.08 106.92 60.13C106.63 60.18 106.32 60.17 105.98 60.09C105.64 60.01 105.32 59.89 105.01 59.72C104.7 59.55 104.41 59.35 104.15 59.12C103.89 58.89 103.7 58.64 103.57 58.38C103.49 58.25 103.44 58.1 103.41 57.93C103.38 57.76 103.4 57.61 103.45 57.48C103.53 57.38 103.66 57.25 103.84 57.11C104.02 56.97 104.23 56.82 104.46 56.68C104.69 56.54 104.92 56.4 105.12 56.27C105.33 56.14 105.49 56.05 105.59 56C106.5 55.51 107.42 55.06 108.36 54.65C109.3 54.25 110.24 53.86 111.21 53.5C111.18 53.16 111.17 52.84 111.17 52.53V51.55C111.12 47.86 111.12 44.18 111.17 40.53C111.22 36.88 111.3 33.2 111.4 29.51C111.48 26.21 111.57 22.93 111.67 19.66C111.77 16.4 111.89 13.12 112.02 9.81004C111.21 10.17 110.42 10.55 109.64 10.94C108.86 11.33 108.09 11.75 107.34 12.19C107.21 12.27 107.08 12.35 106.95 12.42C106.82 12.5 106.68 12.54 106.52 12.54C105.95 12.57 105.39 12.44 104.84 12.15C104.29 11.86 103.86 11.49 103.55 11.02C103.42 10.89 103.32 10.73 103.26 10.53C103.2 10.34 103.19 10.16 103.24 10C103.29 9.84004 103.39 9.72004 103.53 9.63004C103.67 9.54004 103.81 9.45004 103.94 9.38004C104.12 9.28004 104.43 9.12004 104.86 8.91004C105.29 8.70004 105.78 8.46004 106.32 8.17004C106.87 7.88004 107.44 7.59004 108.06 7.29004C108.67 6.99004 109.26 6.71004 109.81 6.43004C110.36 6.15004 110.86 5.92004 111.29 5.71004C111.72 5.50004 112.02 5.36004 112.21 5.28004C112.24 4.84004 112.25 4.42004 112.25 4.01004C112.25 3.60004 112.28 3.20004 112.33 2.78004C112.36 2.60004 112.44 2.45004 112.58 2.33004C112.72 2.21004 112.87 2.14004 113.03 2.12004C113.58 2.04004 114.13 2.14004 114.69 2.41004C115.25 2.68004 115.71 3.03004 116.07 3.44004C116.75 3.15004 117.44 2.89004 118.14 2.64004C118.84 2.39004 119.56 2.23004 120.29 2.15004C120.97 2.10004 121.62 2.17004 122.24 2.36004C122.86 2.55004 123.42 2.87004 123.92 3.32004C124.1 3.48004 124.26 3.65004 124.41 3.85004C124.55 4.05004 124.66 4.24004 124.72 4.43004C124.78 4.63004 124.8 4.81004 124.76 4.98004C124.72 5.15004 124.6 5.29004 124.39 5.39004C124.1 5.52004 123.81 5.55004 123.49 5.47004C123.18 5.39004 122.88 5.33004 122.59 5.28004C122.54 5.25004 122.43 5.26004 122.28 5.30004C122.12 5.34004 122.02 5.37004 121.97 5.40004C120.98 5.66004 120.03 6.00004 119.1 6.43004C118.18 6.86004 117.25 7.29004 116.31 7.74004C116.21 10.03 116.12 12.28 116.06 14.51C116 16.73 115.94 18.98 115.89 21.24C115.76 25.24 115.66 29.22 115.58 33.15C115.5 37.08 115.45 41.05 115.42 45.03C115.37 47.37 115.37 49.7 115.42 52.01C116.15 51.8 116.88 51.65 117.62 51.56C118.36 51.47 119.11 51.49 119.86 51.62C120.46 51.7 121.04 51.91 121.6 52.26C122.16 52.61 122.56 53.06 122.79 53.61C122.89 53.82 122.92 54.03 122.87 54.25C122.82 54.47 122.69 54.63 122.48 54.74C122.25 54.87 121.99 54.91 121.72 54.86C121.45 54.81 121.18 54.74 120.92 54.67C120.87 54.67 120.83 54.66 120.8 54.63C120.77 54.63 120.76 54.63 120.76 54.61C120.76 54.6 120.75 54.59 120.72 54.59C120.69 54.59 120.68 54.58 120.68 54.55C120.42 54.5 120.06 54.53 119.59 54.65C119.12 54.77 118.63 54.91 118.11 55.08C117.59 55.25 117.09 55.42 116.61 55.61C116.13 55.79 115.77 55.94 115.54 56.04C115.59 56.59 115.64 57.14 115.68 57.7C115.72 58.26 115.82 58.81 115.97 59.36C115.97 59.41 116.01 59.48 116.09 59.56C116.17 59.64 116.22 59.69 116.25 59.72C116.35 59.85 116.45 60.04 116.52 60.29C116.6 60.54 116.6 60.74 116.52 60.89L116.5 60.88Z" fill="#003049"/>
<path d="M151.75 42.71C151.91 43.18 151.85 43.61 151.59 44C151.33 44.39 150.97 44.56 150.5 44.51C149.85 44.43 149.28 44.24 148.78 43.93C148.6 43.8 148.33 43.57 147.98 43.23C147.63 42.89 147.41 42.62 147.34 42.41C147.21 42.15 147.09 41.75 146.97 41.2C146.85 40.65 146.75 40.04 146.66 39.35C146.57 38.66 146.49 37.94 146.43 37.19C146.36 36.44 146.31 35.71 146.25 35.01C146.2 34.31 146.15 33.68 146.11 33.12C146.07 32.56 146.04 32.13 146.01 31.81C145.72 32.98 145.43 34.14 145.11 35.3C144.8 36.46 144.43 37.61 144.02 38.75C143.86 39.17 143.69 39.57 143.51 39.96C143.33 40.35 143.09 40.73 142.81 41.09C142.63 41.35 142.43 41.58 142.21 41.79C141.99 42 141.73 42.15 141.45 42.26C141.09 42.39 140.68 42.45 140.24 42.44C139.8 42.43 139.38 42.36 138.99 42.23C138 41.94 137.08 41.52 136.22 40.94C135.36 40.37 134.61 39.69 133.96 38.91C133.31 38.13 132.78 37.28 132.36 36.36C131.94 35.44 131.68 34.47 131.58 33.45C131.5 32.7 131.5 31.94 131.58 31.19C131.66 30.44 131.79 29.69 131.97 28.97C132.33 27.36 132.92 25.82 133.73 24.37C134.53 22.91 135.46 21.55 136.5 20.28C137.28 19.32 138.13 18.41 139.05 17.57C139.97 16.73 140.98 16 142.07 15.41C142.56 15.15 143.09 14.97 143.65 14.86C144.21 14.76 144.75 14.74 145.27 14.82C145.3 14.74 145.33 14.61 145.37 14.43C145.41 14.25 145.45 14.05 145.51 13.85C145.57 13.65 145.61 13.44 145.65 13.25C145.69 13.05 145.71 12.92 145.71 12.84C145.76 11.2 145.88 9.58004 146.06 7.98004C146.24 6.38004 146.44 4.78004 146.64 3.16004C146.67 3.03004 146.7 2.83004 146.74 2.56004C146.78 2.29004 146.82 2.01004 146.88 1.72004C146.93 1.43004 146.99 1.16004 147.06 0.900039C147.12 0.640039 147.21 0.460039 147.31 0.350039C147.49 0.140039 147.75 0.0400391 148.07 0.0400391C148.39 0.0400391 148.69 0.0900391 148.95 0.200039C149.39 0.360039 149.81 0.560039 150.22 0.800039C150.62 1.05004 150.93 1.38004 151.14 1.79004C151.24 2.00004 151.31 2.34004 151.34 2.80004C151.37 3.27004 151.37 3.76004 151.34 4.28004C151.31 4.80004 151.28 5.30004 151.24 5.78004C151.2 6.26004 151.17 6.62004 151.14 6.85004C151.01 8.12004 150.83 9.40004 150.59 10.67C150.36 11.94 150.11 13.22 149.85 14.49C149.82 14.59 149.81 14.78 149.81 15.06V17.46C149.89 17.56 150.04 17.75 150.26 18.01C150.48 18.27 150.71 18.55 150.94 18.85C151.17 19.15 151.4 19.43 151.6 19.71C151.8 19.99 151.95 20.17 152.03 20.28C152.16 20.51 152.21 20.76 152.19 21.02C152.16 21.28 152.02 21.44 151.76 21.49C151.42 21.57 151.08 21.57 150.75 21.49C150.41 21.41 150.09 21.31 149.77 21.18C149.8 23.7 149.86 26.2 149.97 28.69C150.07 31.17 150.22 33.68 150.4 36.2C150.48 37.14 150.57 38.07 150.67 39.01C150.77 39.95 150.89 40.88 151.02 41.82C151.15 41.95 151.29 42.09 151.43 42.25C151.57 42.41 151.68 42.58 151.76 42.76L151.75 42.71ZM136.54 37.52C136.72 37.88 136.94 38.22 137.2 38.53C137.46 38.84 137.77 39.1 138.14 39.31C138.35 39.18 138.54 39.04 138.71 38.88C138.88 38.72 139.02 38.54 139.12 38.33C139.46 37.73 139.74 37.13 139.98 36.52C140.21 35.91 140.42 35.28 140.6 34.63C140.96 33.41 141.3 32.19 141.6 30.98C141.9 29.77 142.19 28.54 142.48 27.29C142.79 25.89 143.11 24.48 143.44 23.08C143.76 21.68 144.1 20.27 144.43 18.87C142.97 19.88 141.67 21.09 140.53 22.48C139.39 23.87 138.41 25.36 137.61 26.95C137.09 28.02 136.65 29.12 136.3 30.26C135.95 31.4 135.76 32.57 135.73 33.77C135.7 34.42 135.76 35.06 135.89 35.7C136.02 36.34 136.24 36.94 136.55 37.51L136.54 37.52Z" fill="#003049"/>
<path d="M160.8 42.1601C160.1 42.2401 159.43 42.1601 158.81 41.9301C157.46 41.4101 156.42 40.5301 155.69 39.2801C155.22 38.4501 154.93 37.5401 154.81 36.5701C154.69 35.6001 154.63 34.6301 154.63 33.6601C154.6 32.1301 154.65 30.6001 154.77 29.0801C154.89 27.5601 155.05 26.0301 155.26 24.5001C154.71 24.4501 154.16 24.3801 153.6 24.3001C153.04 24.2201 152.53 24.0401 152.06 23.7501C151.75 23.5401 151.45 23.3101 151.16 23.0501C150.87 22.7901 150.68 22.4801 150.58 22.1101C150.53 21.8501 150.59 21.6301 150.78 21.4501C150.83 21.4001 150.98 21.3201 151.23 21.2201C151.48 21.1201 151.64 21.0401 151.72 20.9901C152.5 20.6001 153.26 20.1601 154 19.6601C154.74 19.1701 155.49 18.6901 156.24 18.2201C156.27 18.1201 156.3 17.9301 156.36 17.6501C156.41 17.3801 156.47 17.0801 156.53 16.7701C156.59 16.4601 156.66 16.1701 156.73 15.8901C156.79 15.6201 156.85 15.4301 156.91 15.3201C156.99 15.1101 157.15 14.9901 157.4 14.9501C157.65 14.9101 157.87 14.9201 158.08 14.9701C158.86 15.1001 159.56 15.4301 160.19 15.9501C160.89 15.5901 161.63 15.2701 162.39 14.9901C163.16 14.7201 163.96 14.5801 164.79 14.5801C165.44 14.5801 166.08 14.7001 166.7 14.9301C168.13 15.4801 169.25 16.3701 170.05 17.6201C170.54 18.3701 170.84 19.2301 170.93 20.1901C171.02 21.1501 171.03 22.0901 170.95 23.0001C171.03 23.0001 171.16 23.0001 171.36 23.0201C171.56 23.0301 171.77 23.0501 172 23.0601C172.23 23.0701 172.45 23.0901 172.64 23.1001C172.83 23.1101 172.97 23.1301 173.05 23.1601C173.31 23.2401 173.59 23.3501 173.89 23.5101C174.19 23.6701 174.47 23.8401 174.73 24.0401C174.99 24.2401 175.2 24.4601 175.35 24.7201C175.51 24.9801 175.58 25.2401 175.58 25.5001C175.58 25.6601 175.51 25.7901 175.37 25.8901C175.23 25.9901 175.08 26.0601 174.92 26.0801C174.76 26.1101 174.48 26.1101 174.06 26.1001C173.64 26.0901 173.2 26.0701 172.72 26.0401C172.24 26.0101 171.79 25.9801 171.37 25.9401C170.95 25.9001 170.67 25.8801 170.51 25.8801C170.22 27.1501 169.88 28.4201 169.48 29.6801C169.08 30.9401 168.59 32.1601 168.02 33.3301C167.55 34.2701 167.04 35.1801 166.48 36.0601C165.92 36.9401 165.36 37.8301 164.78 38.7101C164.49 39.1501 164.18 39.5701 163.84 39.9801C163.5 40.3801 163.14 40.7501 162.75 41.0901C162.46 41.3501 162.16 41.5801 161.83 41.7701C161.5 41.9601 161.16 42.0901 160.8 42.1401V42.1601ZM158.85 32.1701C158.8 33.2101 158.77 34.2501 158.77 35.2901C158.77 36.3301 158.86 37.3401 159.04 38.3301C159.38 38.0401 159.68 37.7401 159.94 37.4101C160.2 37.0901 160.46 36.7401 160.72 36.3801C161.27 35.5501 161.81 34.7201 162.34 33.9001C162.87 33.0801 163.36 32.2201 163.8 31.3101C164.29 30.4001 164.71 29.4501 165.05 28.4601C165.39 27.4701 165.7 26.4801 165.99 25.5001C164.9 25.4001 163.82 25.3001 162.77 25.2101C161.72 25.1201 160.66 25.0201 159.59 24.9201C159.41 26.1401 159.25 27.3501 159.12 28.5501C158.99 29.7501 158.9 30.9601 158.85 32.1801V32.1701ZM161.54 22.2301C162.37 22.3101 163.21 22.3901 164.06 22.4601C164.9 22.5401 165.76 22.6001 166.61 22.6601C166.74 21.8301 166.83 20.9801 166.88 20.1201C166.93 19.2601 166.81 18.4401 166.53 17.6601C165.59 17.8401 164.7 18.1501 163.84 18.6001C162.98 19.0401 162.14 19.5101 161.3 20.0001L161.53 22.2201L161.54 22.2301Z" fill="#003049"/>
<path d="M187.63 43.7201C187.58 43.8801 187.47 43.9901 187.32 44.0501C187.16 44.1101 186.99 44.1301 186.81 44.1101C186.39 44.0301 185.98 43.8701 185.56 43.6201C185.14 43.3701 184.77 43.0701 184.43 42.7201C184.09 42.3701 183.81 41.9801 183.57 41.5501C183.34 41.1201 183.21 40.7001 183.18 40.2801C183.13 39.7101 183.19 39.1601 183.38 38.6201C183.56 38.0901 183.77 37.5601 184 37.0401C184.29 36.4401 184.59 35.8501 184.92 35.2701C185.25 34.6901 185.59 34.1101 185.95 33.5301C187.12 31.6301 188.29 29.7501 189.46 27.8701C190.63 26.0001 191.75 24.0901 192.81 22.1401C193.41 21.0501 193.97 19.9401 194.49 18.8101C195.01 17.6801 195.48 16.5201 195.89 15.3201C196.23 14.4101 196.5 13.4701 196.71 12.5101C196.92 11.5501 197.03 10.5701 197.06 9.58009C196.59 9.53009 196.12 9.51009 195.66 9.52009C195.19 9.53009 194.71 9.54009 194.22 9.54009C193.57 9.57009 192.93 9.62009 192.29 9.72009C191.65 9.81009 191.01 9.92009 190.36 10.0501C189.16 10.3101 187.99 10.6301 186.85 11.0301C185.71 11.4201 184.59 11.8801 183.5 12.3901C182.67 12.7801 181.86 13.2401 181.08 13.7701C180.3 14.3001 179.61 14.9301 179.01 15.6601C178.72 16.0201 178.49 16.4101 178.31 16.8301C178.13 17.2501 178.01 17.6801 177.96 18.1201C177.93 18.3301 177.94 18.5401 177.98 18.7401C178.02 18.9501 178.12 19.1201 178.27 19.2501C178.66 19.5401 179.13 19.7101 179.67 19.7601C180.22 19.8101 180.72 19.7701 181.19 19.6401C181.42 19.5601 181.68 19.5701 181.95 19.6601C182.22 19.7501 182.46 19.8601 182.67 19.9901C183.09 20.2501 183.46 20.5801 183.78 20.9801C184.11 21.3801 184.31 21.8301 184.38 22.3301C184.41 22.5601 184.36 22.7501 184.24 22.9001C184.12 23.0401 183.96 23.1501 183.75 23.2101C183.54 23.2701 183.31 23.3201 183.05 23.3501C182.79 23.3801 182.54 23.3901 182.31 23.3901C181.56 23.4201 180.81 23.2901 180.09 23.0201C179.36 22.7501 178.69 22.4201 178.06 22.0301C177.25 21.5101 176.53 20.8701 175.9 20.1001C175.26 19.3301 174.8 18.5101 174.52 17.6201C174.29 16.9701 174.22 16.2801 174.33 15.5501C174.43 14.8201 174.66 14.1601 174.99 13.5601C175.56 12.5501 176.33 11.6701 177.29 10.9301C178.25 10.1901 179.25 9.56009 180.29 9.04009C182.45 7.95009 184.74 7.14009 187.15 6.62009C189.57 6.10009 192 5.88009 194.44 5.96009C194.96 5.99009 195.49 6.06009 196.02 6.17009C196.55 6.29009 197.05 6.46009 197.52 6.70009C198.12 7.01009 198.66 7.43009 199.16 7.97009C199.65 8.50009 200.04 9.08009 200.33 9.71009C200.46 10.0001 200.56 10.3001 200.62 10.6301C200.69 10.9601 200.7 11.2701 200.68 11.5901C200.63 13.3801 200.34 15.1501 199.82 16.8701C199.3 18.6001 198.66 20.2801 197.91 21.9201C197.05 23.7401 196.12 25.5101 195.1 27.2201C194.09 28.9401 193.05 30.6501 191.98 32.3701C191.23 33.5401 190.48 34.7101 189.76 35.8801C189.04 37.0501 188.37 38.2601 187.77 39.5101C187.59 39.8701 187.42 40.2401 187.26 40.6001C187.1 40.9601 186.99 41.3401 186.91 41.7301C187.12 42.0201 187.31 42.3301 187.49 42.6901C187.67 43.0401 187.71 43.3901 187.61 43.7201H187.63ZM187.01 52.8501C186.8 52.9801 186.57 53.0401 186.31 53.0301C186.05 53.0201 185.78 52.9701 185.51 52.8901C185.24 52.8101 184.97 52.7101 184.71 52.5801C184.45 52.4501 184.23 52.3201 184.05 52.1901C183.84 52.0301 183.65 51.8601 183.47 51.6801C183.29 51.5001 183.13 51.2901 183 51.0601C182.82 50.7001 182.78 50.2901 182.88 49.8501C182.98 49.4101 183.17 49.0301 183.43 48.7201C183.25 48.5101 183.14 48.2801 183.12 48.0201C183.07 47.6801 183.2 47.4401 183.53 47.2801C183.85 47.1201 184.2 47.0601 184.56 47.0801C184.98 47.1101 185.39 47.1601 185.79 47.2401C186.19 47.3201 186.58 47.4501 186.94 47.6301C187.17 47.7601 187.43 47.9201 187.72 48.1001C188.01 48.2801 188.25 48.4901 188.46 48.7201C188.67 48.9501 188.84 49.2001 188.97 49.4601C189.1 49.7201 189.13 49.9801 189.05 50.2401C188.92 50.7601 188.67 51.2501 188.29 51.7201C187.91 52.1901 187.49 52.5601 187.02 52.8501H187.01Z" fill="#003049"/>
</g>
<defs>
<clipPath id="clip0_2704_1598">
<rect width="200.71" height="63.15" fill="white"/>
</clipPath>
</defs>
</svg>
