<svg width="71" height="52" viewBox="0 0 71 52" fill="none" xmlns="http://www.w3.org/2000/svg">
<path d="M48.8927 51.4058L21.9667 51.4058C9.83483 51.4058 0 39.8981 0 25.7028C0 11.5074 9.83483 -0.000198364 21.9667 -0.000198364L48.8927 -0.000198364C61.0246 -0.000198364 70.8594 11.5074 70.8594 25.7028C70.8594 39.8981 61.0246 51.4058 48.8927 51.4058Z" fill="#003049"/>
<path d="M21.9647 46.6819C12.0788 46.6819 4.03513 37.2701 4.03513 25.7028C4.03513 14.1355 12.0768 4.72363 21.9647 4.72363H48.8906C58.7765 4.72363 66.8202 14.1355 66.8202 25.7028C66.8202 37.2701 58.7785 46.6819 48.8906 46.6819H21.9647Z" fill="#CB3047"/>
<path d="M21.2262 23.81L30.2797 13.2166C30.7204 12.701 31.3038 12.417 31.924 12.417C32.5441 12.417 33.1296 12.701 33.5682 13.2166C34.0088 13.7322 34.2516 14.4149 34.2516 15.1405C34.2516 15.8662 34.0088 16.5512 33.5682 17.0644L28.4886 23.008H48.2215C49.5047 23.008 50.5492 24.2301 50.5492 25.7316C50.5492 27.233 49.5047 28.4551 48.2215 28.4551H28.4886L33.5682 34.3987C34.0088 34.9143 34.2516 35.5969 34.2516 36.3226C34.2516 37.0482 34.0088 37.7333 33.5682 38.2465C33.1276 38.7621 32.5441 39.0461 31.924 39.0461C31.3038 39.0461 30.7183 38.7621 30.2797 38.2465L21.2405 27.6698C20.7958 27.1685 20.5469 26.4835 20.5469 25.7459C20.5408 25.0083 20.7794 24.3232 21.2242 23.8029L21.2262 23.81Z" fill="#003049"/>
</svg>
