<svg width="71" height="52" viewBox="0 0 71 52" fill="none" xmlns="http://www.w3.org/2000/svg">
<path d="M21.9667 51.4058L48.8927 51.4058C61.0245 51.4058 70.8594 39.8981 70.8594 25.7028C70.8594 11.5074 61.0245 -0.000198364 48.8927 -0.000198364L21.9667 -0.000198364C9.83481 -0.000198364 -2.28882e-05 11.5074 -2.28882e-05 25.7028C-2.28882e-05 39.8981 9.83481 51.4058 21.9667 51.4058Z" fill="#003049"/>
<path d="M48.8947 46.6819C58.7805 46.6819 66.8243 37.2701 66.8243 25.7028C66.8243 14.1355 58.7826 4.72363 48.8947 4.72363H21.9687C12.0829 4.72363 4.03918 14.1355 4.03918 25.7028C4.03918 37.2701 12.0809 46.6819 21.9687 46.6819H48.8947Z" fill="#CB3047"/>
<path d="M49.6333 23.81L40.5797 13.2166C40.1391 12.701 39.5557 12.417 38.9355 12.417C38.3153 12.417 37.7299 12.701 37.2913 13.2166C36.8506 13.7322 36.6079 14.4149 36.6079 15.1405C36.6079 15.8662 36.8506 16.5512 37.2913 17.0644L42.3709 23.008H22.6379C21.3548 23.008 20.3103 24.2301 20.3103 25.7316C20.3103 27.233 21.3548 28.4551 22.6379 28.4551H42.3709L37.2913 34.3987C36.8506 34.9143 36.6079 35.5969 36.6079 36.3226C36.6079 37.0482 36.8506 37.7333 37.2913 38.2465C37.7319 38.7621 38.3153 39.0461 38.9355 39.0461C39.5557 39.0461 40.1411 38.7621 40.5797 38.2465L49.619 27.6698C50.0637 27.1685 50.3126 26.4835 50.3126 25.7459C50.3187 25.0083 50.08 24.3232 49.6353 23.8029L49.6333 23.81Z" fill="#003049"/>
</svg>
